<svg xmlns="http://www.w3.org/2000/svg" xmlns:xlink="http://www.w3.org/1999/xlink" width="141" height="125" viewBox="0 0 141 125">
  <defs>
    <path id="icn-warning-a" d="M213.069804,150.395156 L271.885078,251.22134 C274.997313,256.556601 273.195195,263.40465 267.859934,266.516885 C266.149526,267.514623 264.20488,268.040357 262.224734,268.040357 L144.594186,268.040357 C138.417535,268.040357 133.41037,263.033192 133.41037,256.856541 C133.41037,254.876394 133.936103,252.931749 134.933842,251.22134 L193.749116,150.395156 C196.861351,145.059896 203.7094,143.257778 209.04466,146.370013 C210.71109,147.342097 212.09772,148.728727 213.069804,150.395156 L213.069804,150.395156 Z M212.465729,190.583695 C212.465729,188.341095 211.621127,186.426177 209.931896,184.838883 C208.242665,183.251589 206.247656,182.457953 203.946807,182.457953 C201.616834,182.457953 199.621824,183.251589 197.961718,184.838883 C196.301612,186.426177 195.471572,188.341095 195.471572,190.583695 C195.471572,191.690432 195.704565,193.343232 196.17056,195.542144 C196.636555,197.741056 197.146229,199.990903 197.699597,202.291752 C198.311215,204.796473 199.010197,207.898203 199.796563,211.597036 C200.582929,215.295869 201.412969,219.926621 202.286709,225.489432 L205.650592,225.489432 C206.524332,219.98487 207.354372,215.361399 208.140738,211.618879 C208.927104,207.87636 209.626086,204.752786 210.237704,202.248065 C210.878446,199.59772 211.409963,197.289625 211.832271,195.32371 C212.254579,193.357795 212.465729,191.777806 212.465729,190.583695 Z M212.378356,238.857587 C212.378356,236.644113 211.541034,234.729195 209.866366,233.112776 C208.191698,231.496357 206.233093,230.688159 203.990494,230.688159 C201.71877,230.688159 199.745603,231.496357 198.070935,233.112776 C196.396267,234.729195 195.558945,236.644113 195.558945,238.857587 C195.558945,241.071062 196.396267,242.971418 198.070935,244.558712 C199.745603,246.146006 201.71877,246.939642 203.990494,246.939642 C206.233093,246.939642 208.191698,246.146006 209.866366,244.558712 C211.541034,242.971418 212.378356,241.071062 212.378356,238.857587 Z"/>
  </defs>
  <g fill="none" fill-rule="evenodd" transform="translate(-133 -144)">
    <use fill="#4B31F6" opacity=".1" xlink:href="#icn-warning-a"/>
  </g>
</svg>
