<svg xmlns="http://www.w3.org/2000/svg" width="24" height="24" viewBox="0 0 24 24">
  <path fill="#FFF" d="M6.09090909,3 L17.9090909,3 C20.1671918,3.0030048 21.9969952,4.83280819 22,7.09090909 L22,14.3636364 C21.9970197,16.2721721 20.6780952,17.9264803 18.8181818,18.3545455 L18.8181818,19.8181818 C18.8173861,20.3552988 18.5025904,20.8423345 18.0131818,21.0636364 C17.8369511,21.1406316 17.6468593,21.1808463 17.4545455,21.1818182 C17.1202182,21.182066 16.7975295,21.0590753 16.5481818,20.8363636 L13.8663636,18.4545455 L6.09090909,18.4545455 C3.83280819,18.4515407 2.0030048,16.6217373 2,14.3636364 L2,7.09090909 C2.0030048,4.83280819 3.83280819,3.0030048 6.09090909,3 Z M11.3473643,8.12454631 L10.8871984,7.37926037 C10.6230278,7.5365993 10.2949499,7.73948066 9.9029548,7.98791055 C9.51095972,8.23634044 9.14027427,8.53859227 8.79088734,8.89467511 C8.45002205,9.24247696 8.16029089,9.6378886 7.92168518,10.0809219 C7.68307948,10.5239552 7.56377842,11.0145969 7.56377842,11.5528616 C7.56377842,12.3147133 7.72142625,12.929568 8.03672665,13.3974443 C8.35202704,13.8653206 8.87609957,14.0992553 9.60895996,14.0992553 C10.0776497,14.0992553 10.4462048,13.9481293 10.7146362,13.645873 C10.9830676,13.3436166 11.1172813,13.0185924 11.1172813,12.6707905 C11.1172813,12.1822118 10.9660246,11.8116427 10.6635067,11.5590723 C10.3609887,11.306502 9.94556539,11.1802187 9.41722419,11.1802187 L8.80366973,11.1802187 C8.85479952,10.7496069 8.94427532,10.3976698 9.0720998,10.1243969 C9.19992429,9.85112404 9.38313664,9.59027656 9.62174234,9.34184668 C9.87739131,9.07685479 10.1287757,8.86362234 10.375903,8.70214291 C10.6230304,8.54066348 10.9468475,8.34813321 11.3473643,8.12454631 Z M16.0768466,8.12454631 L15.6166807,7.37926037 C15.3525101,7.5365993 15.0244322,7.73948066 14.6324371,7.98791055 C14.240442,8.23634044 13.8697566,8.53859227 13.5203697,8.89467511 C13.1795044,9.24247696 12.8897732,9.6378886 12.6511675,10.0809219 C12.4125618,10.5239552 12.2932607,11.0145969 12.2932607,11.5528616 C12.2932607,12.3147133 12.4509086,12.929568 12.766209,13.3974443 C13.0815094,13.8653206 13.6055819,14.0992553 14.3384423,14.0992553 C14.8071321,14.0992553 15.1756871,13.9481293 15.4441185,13.645873 C15.71255,13.3436166 15.8467637,13.0185924 15.8467637,12.6707905 C15.8467637,12.1822118 15.695507,11.8116427 15.392989,11.5590723 C15.0904711,11.306502 14.6750477,11.1802187 14.1467065,11.1802187 L13.533152,11.1802187 C13.5842818,10.7496069 13.6716273,10.39974 13.7951909,10.1306076 C13.9187546,9.86147525 14.1040973,9.59855756 14.3512247,9.34184668 C14.6068736,9.07685479 14.858258,8.86362234 15.1053854,8.70214291 C15.3525127,8.54066348 15.6763299,8.34813321 16.0768466,8.12454631 Z"/>
</svg>
