<svg xmlns="http://www.w3.org/2000/svg" xmlns:xlink="http://www.w3.org/1999/xlink" width="200" height="200" viewBox="0 0 200 200">
  <defs>
    <linearGradient id="photo-empty-b" x1="50%" x2="50%" y1="100%" y2="0%">
      <stop offset="0%" stop-color="#FFF" stop-opacity=".5"/>
      <stop offset="100%" stop-opacity=".5"/>
    </linearGradient>
    <rect id="photo-empty-a" width="200" height="200"/>
  </defs>
  <g fill="none" fill-rule="evenodd">
    <use fill="#E1E1E7" xlink:href="#photo-empty-a"/>
    <use fill="url(#photo-empty-b)" fill-opacity=".5" xlink:href="#photo-empty-a" style="mix-blend-mode:overlay"/>
    <path fill="#FFF" d="M3.8519921,190.440949 C11.5559763,182.791829 29.1585278,174.468374 37.0660097,171.631376 C44.9734916,168.794379 67.971321,158.971822 75.658347,156.223606 C83.3453731,153.475389 81.589741,144.737116 80.2330552,142.649912 C78.8763695,140.562707 70.5016071,132.965815 66.405717,125.877311 C62.309827,118.788808 55.5604864,106.735559 54.1699188,93.7266691 C52.7793511,80.7177791 53.7329972,74.813353 55.4976415,64.0469279 C57.2622858,53.2805027 67.101669,34.7281907 74.5227369,29.6444276 C81.9438048,24.5606645 90.0725507,26.2868571 93.2489949,24.1158289 C96.4254391,21.9448007 94.6999879,18.0601919 101.506074,19.2075733 C108.312161,20.3549547 131.737149,32.9503273 133.614571,35.2081109 C135.491994,37.4658945 139.165572,41.5618696 141.799625,45.9327484 C142.853499,47.6815194 147.546914,55.8094178 149.312009,64.0469279 C151.958591,76.3982523 149.836351,90.4373084 149.312009,96.8176848 C148.437964,107.453347 140.001186,123.324826 137.410974,127.554224 C133.688691,133.632112 125.955244,141.735329 124.137531,143.410625 C122.319819,145.085921 122.449269,155.682931 127.073223,156.891584 C131.697177,158.100236 163.185281,172.846362 172.573327,176.828827 C181.961373,180.811292 193.506372,187.942096 199.439205,193.696352 C203.394427,197.532523 204.789543,200.922614 203.624553,203.866627 L3.8519921,203.866627 C-1.28399737,200.015588 -1.28399737,195.540362 3.8519921,190.440949 Z" style="mix-blend-mode:overlay"/>
  </g>
</svg>
